<svg width="22" height="22" viewBox="0 0 22 22" fill="none" xmlns="http://www.w3.org/2000/svg">
<path d="M8.69222 11C8.69222 12.0395 9.12419 13.4362 9.53638 14.6873C9.94857 15.9383 10.3608 16.9816 10.3608 16.9816C10.4119 17.1105 10.5007 17.2209 10.6157 17.2984C10.7306 17.3759 10.8662 17.4168 11.0049 17.4159C11.1435 17.4149 11.2785 17.3721 11.3924 17.293C11.5062 17.2139 11.5935 17.1022 11.6427 16.9727C11.6427 16.9727 12.0533 15.8923 12.4645 14.6237C12.8757 13.3551 13.3078 11.9839 13.3078 11C13.3078 10.0161 12.8757 8.64495 12.4645 7.37631C12.0533 6.10767 11.6427 5.02735 11.6427 5.02735C11.5935 4.89779 11.5062 4.78614 11.3924 4.70705C11.2785 4.62795 11.1435 4.58511 11.0049 4.58414C10.8662 4.58318 10.7306 4.62412 10.6157 4.70162C10.5007 4.77912 10.4119 4.88954 10.3608 5.0184C10.3608 5.0184 9.94857 6.06173 9.53638 7.31275C9.12419 8.56378 8.69222 9.96051 8.69222 11ZM10.0672 11H11.9328C11.9328 11.4746 11.5558 12.9681 11.1567 14.1994C11.0741 14.454 11.0701 14.4403 10.9911 14.672C10.9193 14.4654 10.9168 14.4832 10.8425 14.2576C10.4443 13.0492 10.0672 11.5812 10.0672 11Z" fill="#F9F9F9"/>
<path d="M11 1.83334C10.8177 1.83334 10.6428 1.90578 10.5139 2.03471C10.3849 2.16364 10.3125 2.33851 10.3125 2.52084C10.3125 2.70318 10.3849 2.87805 10.5139 3.00698C10.6428 3.13591 10.8177 3.20834 11 3.20834C11.1823 3.20834 11.3572 3.13591 11.4861 3.00698C11.6151 2.87805 11.6875 2.70318 11.6875 2.52084C11.6875 2.33851 11.6151 2.16364 11.4861 2.03471C11.3572 1.90578 11.1823 1.83334 11 1.83334ZM13.5226 2.21111C13.3562 2.2081 13.1943 2.26559 13.067 2.37292C12.9397 2.48024 12.8557 2.63011 12.8305 2.7947C12.8054 2.95928 12.8408 3.1274 12.9302 3.26784C13.0196 3.40829 13.157 3.51152 13.3167 3.55836C15.7553 4.31679 17.6832 6.2447 18.4417 8.68328C18.4685 8.76951 18.512 8.84962 18.5697 8.91903C18.6275 8.98844 18.6984 9.0458 18.7783 9.08782C18.8582 9.12985 18.9456 9.15572 19.0356 9.16395C19.1255 9.17219 19.2162 9.16263 19.3024 9.13583C19.3886 9.10903 19.4687 9.0655 19.5381 9.00774C19.6075 8.94997 19.6649 8.8791 19.7069 8.79917C19.7489 8.71924 19.7748 8.63182 19.783 8.5419C19.7913 8.45197 19.7817 8.3613 19.7549 8.27507C18.8615 5.40249 16.5975 3.13853 13.7249 2.24513C13.6596 2.22373 13.5914 2.21227 13.5226 2.21111ZM8.45679 2.21201C8.395 2.21482 8.33388 2.22596 8.27507 2.24513C5.40248 3.13854 3.13853 5.40249 2.24512 8.27507C2.2183 8.36131 2.20874 8.45198 2.21696 8.54191C2.22519 8.63183 2.25105 8.71926 2.29307 8.7992C2.33509 8.87913 2.39244 8.95 2.46185 9.00777C2.53126 9.06554 2.61137 9.10907 2.69761 9.13587C2.78384 9.16268 2.87451 9.17224 2.96444 9.164C3.05437 9.15576 3.1418 9.12989 3.22172 9.08786C3.30165 9.04583 3.37252 8.98847 3.43028 8.91905C3.48804 8.84963 3.53156 8.76952 3.55835 8.68328C4.31678 6.2447 6.24469 4.31679 8.68327 3.55836C8.84453 3.51085 8.9828 3.4059 9.07193 3.26335C9.16106 3.12081 9.19488 2.95055 9.16699 2.78476C9.1391 2.61898 9.05144 2.46915 8.92058 2.36361C8.78972 2.25808 8.62472 2.20414 8.45679 2.21201ZM2.52084 10.3125C2.3385 10.3125 2.16363 10.3849 2.0347 10.5139C1.90577 10.6428 1.83334 10.8177 1.83334 11C1.83334 11.1823 1.90577 11.3572 2.0347 11.4861C2.16363 11.6151 2.3385 11.6875 2.52084 11.6875C2.70317 11.6875 2.87804 11.6151 3.00697 11.4861C3.1359 11.3572 3.20834 11.1823 3.20834 11C3.20834 10.8177 3.1359 10.6428 3.00697 10.5139C2.87804 10.3849 2.70317 10.3125 2.52084 10.3125ZM19.4792 10.3125C19.2968 10.3125 19.122 10.3849 18.993 10.5139C18.8641 10.6428 18.7917 10.8177 18.7917 11C18.7917 11.1823 18.8641 11.3572 18.993 11.4861C19.122 11.6151 19.2968 11.6875 19.4792 11.6875C19.6615 11.6875 19.8364 11.6151 19.9653 11.4861C20.0942 11.3572 20.1667 11.1823 20.1667 11C20.1667 10.8177 20.0942 10.6428 19.9653 10.5139C19.8364 10.3849 19.6615 10.3125 19.4792 10.3125ZM2.88786 12.8244C2.78024 12.8261 2.67453 12.8531 2.57924 12.9031C2.48394 12.9531 2.40172 13.0248 2.33919 13.1124C2.27667 13.2 2.23558 13.3011 2.21924 13.4075C2.2029 13.5139 2.21177 13.6226 2.24512 13.7249C3.13853 16.5975 5.40248 18.8615 8.27507 19.7549C8.3613 19.7817 8.45196 19.7913 8.54189 19.783C8.63181 19.7748 8.71924 19.7489 8.79917 19.7069C8.87909 19.6649 8.94996 19.6075 9.00773 19.5381C9.06549 19.4687 9.10902 19.3886 9.13582 19.3024C9.16263 19.2162 9.17218 19.1255 9.16395 19.0356C9.15571 18.9456 9.12984 18.8582 9.08782 18.7783C9.04579 18.6984 8.98844 18.6275 8.91902 18.5697C8.84961 18.512 8.7695 18.4685 8.68327 18.4417C6.24469 17.6832 4.31678 15.7553 3.55835 13.3167C3.51572 13.1727 3.42709 13.0466 3.30601 12.9577C3.18493 12.8688 3.03806 12.8219 2.88786 12.8244ZM19.0916 12.8244C18.9449 12.8264 18.8027 12.8753 18.6858 12.9638C18.5688 13.0524 18.4833 13.1761 18.4417 13.3167C17.6832 15.7553 15.7553 17.6832 13.3167 18.4417C13.2305 18.4685 13.1504 18.512 13.081 18.5697C13.0116 18.6275 12.9542 18.6984 12.9122 18.7783C12.8702 18.8582 12.8443 18.9456 12.8361 19.0356C12.8278 19.1255 12.8374 19.2162 12.8642 19.3024C12.891 19.3886 12.9345 19.4687 12.9923 19.5381C13.05 19.6075 13.1209 19.6649 13.2008 19.7069C13.2808 19.7489 13.3682 19.7748 13.4581 19.783C13.548 19.7913 13.6387 19.7817 13.7249 19.7549C16.5975 18.8615 18.8615 16.5975 19.7549 13.7249C19.7888 13.621 19.7974 13.5104 19.78 13.4024C19.7625 13.2944 19.7196 13.1922 19.6548 13.1041C19.5899 13.0161 19.505 12.9447 19.407 12.8961C19.3091 12.8474 19.2009 12.8229 19.0916 12.8244ZM11 18.7917C10.8177 18.7917 10.6428 18.8641 10.5139 18.993C10.3849 19.122 10.3125 19.2968 10.3125 19.4792C10.3125 19.6615 10.3849 19.8364 10.5139 19.9653C10.6428 20.0942 10.8177 20.1667 11 20.1667C11.1823 20.1667 11.3572 20.0942 11.4861 19.9653C11.6151 19.8364 11.6875 19.6615 11.6875 19.4792C11.6875 19.2968 11.6151 19.122 11.4861 18.993C11.3572 18.8641 11.1823 18.7917 11 18.7917Z" fill="#BCCCF4"/>
</svg>
