<svg width="20" height="20" viewBox="0 0 20 20" fill="none" xmlns="http://www.w3.org/2000/svg">
<path d="M10 1.6748C6.78666 1.6748 4.17317 4.28992 4.17317 7.50325C4.17317 11.2391 9.14543 17.3076 9.35709 17.5635L10 18.3431L10.6429 17.5635C10.8546 17.3068 15.8268 11.2391 15.8268 7.50325C15.8268 4.28909 13.2133 1.6748 10 1.6748ZM10 3.34147C12.2942 3.34147 14.1602 5.20909 14.1602 7.50325C14.1602 9.75742 11.565 13.6343 10 15.6885C8.435 13.636 5.83984 9.76075 5.83984 7.50325C5.83984 5.20909 7.70583 3.34147 10 3.34147ZM10 5.41667C8.84916 5.41667 7.91666 6.34916 7.91666 7.5C7.91666 8.65083 8.84916 9.58333 10 9.58333C11.1508 9.58333 12.0833 8.65083 12.0833 7.5C12.0833 6.34916 11.1508 5.41667 10 5.41667Z" fill="white"/>
</svg>
