<svg width="96" height="96" viewBox="0 0 96 96" fill="none" xmlns="http://www.w3.org/2000/svg">
<path d="M77.002 36.66C76.31 36.66 75.638 36.302 75.268 35.66L65.268 18.34C64.714 17.382 65.042 16.16 66 15.608C66.954 15.056 68.178 15.382 68.732 16.34L78.732 33.66C79.284 34.618 78.956 35.84 78 36.392C77.686 36.574 77.342 36.66 77.002 36.66Z" fill="#199BE2"/>
<path d="M66.998 36.66C66.658 36.66 66.314 36.574 66 36.392C65.042 35.84 64.714 34.616 65.268 33.66L75.268 16.34C75.822 15.382 77.042 15.054 78 15.608C78.958 16.162 79.286 17.384 78.732 18.34L68.732 35.66C68.362 36.302 67.69 36.66 66.998 36.66Z" fill="#199BE2"/>
<path d="M82 28H62C60.894 28 60 27.104 60 26C60 24.896 60.894 24 62 24H82C83.106 24 84 24.896 84 26C84 27.104 83.106 28 82 28Z" fill="#199BE2"/>
<path d="M72 40C70.894 40 70 39.104 70 38V14C70 12.896 70.894 12 72 12C73.106 12 74 12.896 74 14V38C74 39.104 73.106 40 72 40Z" fill="#35C1F1"/>
<path d="M61.61 34C60.918 34 60.246 33.642 59.876 33C59.324 32.042 59.652 30.82 60.608 30.268L81.394 18.268C82.348 17.716 83.572 18.044 84.126 19C84.678 19.958 84.35 21.18 83.394 21.732L62.608 33.732C62.292 33.914 61.95 34 61.61 34Z" fill="#35C1F1"/>
<path d="M82.39 34C82.05 34 81.706 33.914 81.392 33.732L60.606 21.732C59.648 21.18 59.32 19.956 59.874 19C60.428 18.044 61.652 17.716 62.606 18.268L83.392 30.268C84.35 30.82 84.678 32.044 84.124 33C83.754 33.642 83.082 34 82.39 34Z" fill="#35C1F1"/>
<path d="M34 34C32.894 34 32 33.104 32 32V16C32 14.896 32.894 14 34 14C35.106 14 36 14.896 36 16V32C36 33.104 35.106 34 34 34Z" fill="#35C1F1"/>
<path d="M27.074 30C26.382 30 25.71 29.642 25.34 29C24.788 28.044 25.116 26.82 26.072 26.268L39.928 18.268C40.88 17.716 42.106 18.042 42.66 19C43.212 19.956 42.884 21.18 41.928 21.732L28.072 29.732C27.758 29.914 27.414 30 27.074 30Z" fill="#35C1F1"/>
<path d="M40.926 30C40.586 30 40.242 29.914 39.928 29.732L26.072 21.732C25.116 21.18 24.788 19.956 25.34 19C25.892 18.042 27.118 17.716 28.072 18.268L41.928 26.268C42.886 26.82 43.214 28.044 42.66 29C42.29 29.642 41.618 30 40.926 30Z" fill="#35C1F1"/>
<path d="M20 64C18.894 64 18 63.104 18 62V46C18 44.896 18.894 44 20 44C21.106 44 22 44.896 22 46V62C22 63.104 21.106 64 20 64Z" fill="#35C1F1"/>
<path d="M13.074 60C12.382 60 11.71 59.642 11.34 59C10.788 58.044 11.116 56.82 12.072 56.268L25.928 48.268C26.88 47.714 28.106 48.042 28.66 49C29.212 49.956 28.884 51.18 27.928 51.732L14.072 59.732C13.758 59.914 13.414 60 13.074 60Z" fill="#35C1F1"/>
<path d="M26.926 60C26.586 60 26.242 59.914 25.928 59.732L12.072 51.732C11.116 51.18 10.788 49.956 11.34 49C11.892 48.042 13.118 47.714 14.072 48.268L27.928 56.268C28.886 56.82 29.214 58.044 28.66 59C28.29 59.642 27.618 60 26.926 60Z" fill="#35C1F1"/>
<path d="M72 78C70.894 78 70 77.104 70 76V64C70 62.896 70.894 62 72 62C73.106 62 74 62.896 74 64V76C74 77.104 73.106 78 72 78Z" fill="#35C1F1"/>
<path d="M66.806 75C66.114 75 65.442 74.642 65.072 74C64.52 73.044 64.848 71.82 65.804 71.268L76.194 65.268C77.146 64.716 78.372 65.042 78.926 66C79.478 66.956 79.15 68.18 78.194 68.732L67.804 74.732C67.49 74.914 67.146 75 66.806 75Z" fill="#35C1F1"/>
<path d="M77.194 75C76.854 75 76.51 74.914 76.196 74.732L65.806 68.732C64.848 68.18 64.52 66.956 65.072 66C65.624 65.042 66.85 64.714 67.804 65.268L78.194 71.268C79.152 71.82 79.48 73.044 78.926 74C78.556 74.642 77.884 75 77.194 75Z" fill="#35C1F1"/>
<path d="M44 86C42.894 86 42 85.104 42 84V72C42 70.896 42.894 70 44 70C45.106 70 46 70.896 46 72V84C46 85.104 45.106 86 44 86Z" fill="#35C1F1"/>
<path d="M38.806 83C38.114 83 37.442 82.642 37.072 82C36.52 81.044 36.848 79.82 37.804 79.268L48.194 73.268C49.148 72.716 50.372 73.044 50.926 74C51.478 74.956 51.15 76.18 50.194 76.732L39.804 82.732C39.49 82.914 39.146 83 38.806 83Z" fill="#35C1F1"/>
<path d="M49.194 83C48.854 83 48.51 82.914 48.196 82.732L37.806 76.732C36.848 76.18 36.52 74.956 37.072 74C37.624 73.042 38.85 72.716 39.804 73.268L50.194 79.268C51.152 79.82 51.48 81.044 50.926 82C50.556 82.642 49.884 83 49.194 83Z" fill="#35C1F1"/>
</svg>
