<svg width="32" height="32" viewBox="0 0 32 32" fill="none" xmlns="http://www.w3.org/2000/svg">
<path d="M22 4C19.7902 4 18 5.7902 18 8H20C20 6.8098 20.8098 6 22 6C23.1902 6 24 6.8098 24 8C24 9.1902 23.1902 10 22 10H4V12H22C24.2098 12 26 10.2098 26 8C26 5.7902 24.2098 4 22 4ZM4 15V17H23.5C24.8386 17 26 18.1614 26 19.5C26 20.8386 24.8386 22 23.5 22C22.1614 22 21 20.8386 21 19.5H19C19 21.9614 21.0386 24 23.5 24C25.9614 24 28 21.9614 28 19.5C28 17.0386 25.9614 15 23.5 15H4ZM4 20V22H11.9004C13.2189 22 14 22.8098 14 24C14 25.1902 13.1902 26 12 26C10.8098 26 10 25.1902 10 24H8C8 26.2098 9.7902 28 12 28C14.2098 28 16 26.2098 16 24C16 21.7902 14.1819 20 11.9004 20H4Z" fill="white"/>
</svg>
